<?xml version="1.0" encoding="utf-8"?>
<!-- Generator: Adobe Illustrator 23.1.1, SVG Export Plug-In . SVG Version: 6.00 Build 0)  -->
<svg version="1.1" id="Laag_1" xmlns="http://www.w3.org/2000/svg" xmlns:xlink="http://www.w3.org/1999/xlink" x="0px" y="0px"
	 viewBox="0 0 560 288" style="enable-background:new 0 0 560 288;" xml:space="preserve">
<g>
	<path d="M149.06,116.75c-0.49,0-0.96-0.16-1.36-0.45l-34.68-25.68l-0.3,0.22c-5.02,3.71-10.97,5.67-17.22,5.67
		c-15.99,0-29-13.01-29-29s13.01-29,29-29s29,13.01,29,29c0,5.79-1.7,11.39-4.93,16.18l-0.27,0.4l33.75,24.99
		c0.49,0.36,0.81,0.9,0.9,1.5s-0.06,1.21-0.42,1.7l-2.63,3.55C150.47,116.41,149.79,116.75,149.06,116.75L149.06,116.75z M95.5,44.5
		c-12.68,0-23,10.32-23,23s10.32,23,23,23s23-10.32,23-23S108.18,44.5,95.5,44.5z"/>
	<path d="M95.5,39c15.71,0,28.5,12.79,28.5,28.5c0,5.69-1.67,11.19-4.84,15.9l-0.53,0.79l0.77,0.57l33.36,24.7
		c0.79,0.59,0.96,1.71,0.37,2.51l-2.63,3.55c-0.34,0.46-0.87,0.73-1.44,0.73c-0.39,0-0.75-0.12-1.06-0.35l-34.39-25.46l-0.59-0.44
		l-0.59,0.44C107.49,94.07,101.64,96,95.5,96C79.79,96,67,83.21,67,67.5S79.79,39,95.5,39 M95.5,91c12.96,0,23.5-10.54,23.5-23.5
		S108.46,44,95.5,44S72,54.54,72,67.5S82.54,91,95.5,91 M95.5,38C79.21,38,66,51.21,66,67.5C66,83.79,79.21,97,95.5,97
		c6.56,0,12.62-2.14,17.51-5.76l34.39,25.46c0.5,0.37,1.08,0.55,1.66,0.55c0.85,0,1.7-0.39,2.25-1.13l2.63-3.55
		c0.92-1.24,0.66-2.99-0.58-3.9l-33.36-24.7c3.17-4.7,5.01-10.36,5.01-16.46C125,51.21,111.79,38,95.5,38L95.5,38z M95.5,90
		C83.07,90,73,79.93,73,67.5C73,55.07,83.07,45,95.5,45S118,55.07,118,67.5C118,79.93,107.93,90,95.5,90L95.5,90z"/>
</g>
</svg>
